# xmcd
#
# Track frame offsets:
#	150
#	5338
#	20542
#	35809
#	52223
#	67205
#	82797
#	105201
#	140632
#	158761
#	168848
#	183466
#	208034
#	225470
#	239833
#	304690
#
# Disc length: 4273 seconds
# Revision: 1
# Processed by: cddbd v1.5.2PL0 Copyright (c) Steve Scherf et al.
# Submitted via: dBpowerAMP V12.0
#
DISCID=d510af10
DTITLE=Elias Zaikos - Between spirit and time
DYEAR=2000
DGENRE=Blues
TTITLE0=In between
TTITLE1=Death don 't have no mercy
TTITLE2=Just another fool
TTITLE3=Everywhere I go
TTITLE4=Buy a dog
TTITLE5=Cherry pretty darling
TTITLE6=Johnny 's girl
TTITLE7=In my time of dying
TTITLE8=Mean 'n' dangerous
TTITLE9=Bayoy stomp
TTITLE10=Big city lady
TTITLE11=Spirit calling
TTITLE12=Don 't go
TTITLE13=Low down dog blues
TTITLE14=For Muddy Waters
TTITLE15=Two trains running
EXTD=
EXTT0=
EXTT1=
EXTT2=
EXTT3=
EXTT4=
EXTT5=
EXTT6=
EXTT7=
EXTT8=
EXTT9=
EXTT10=
EXTT11=
EXTT12=
EXTT13=
EXTT14=
EXTT15=
PLAYORDER=
